# Blender 3.5.0
# www.blender.org
mtllib float_R_arm.mtl
o 立方体.002
v -1.773822 -2.113230 -0.495133
v -0.412120 0.245308 -0.495133
v -0.907799 -2.613229 -0.497080
v 0.453904 -0.254691 -0.497080
v -1.772137 -2.114203 0.504865
v -0.410435 0.244335 0.504865
v -0.906113 -2.614202 0.502919
v 0.455589 -0.255664 0.502919
vn -0.0017 0.0010 -1.0000
vn 0.8660 -0.5000 -0.0019
vn 0.0017 -0.0010 1.0000
vn -0.8660 0.5000 0.0019
vn -0.5000 -0.8660 -0.0000
vn 0.5000 0.8660 -0.0000
vt 0.375000 0.000000
vt 0.125000 0.750000
vt 0.375000 1.000000
vt 0.625000 0.000000
vt 0.625000 1.000000
vt 0.875000 0.750000
vt 0.375000 0.250000
vt 0.125000 0.500000
vt 0.625000 0.250000
vt 0.875000 0.500000
vt 0.375000 0.750000
vt 0.625000 0.750000
vt 0.375000 0.500000
vt 0.625000 0.500000
s 0
usemtl マテリアル
f 2/4/1 3/7/1 1/1/1
f 4/9/2 7/13/2 3/7/2
f 8/14/3 5/11/3 7/13/3
f 6/12/4 1/3/4 5/11/4
f 3/8/5 5/11/5 1/2/5
f 4/10/6 6/12/6 8/14/6
f 2/4/1 4/9/1 3/7/1
f 4/9/2 8/14/2 7/13/2
f 8/14/3 6/12/3 5/11/3
f 6/12/4 2/5/4 1/3/4
f 3/8/5 7/13/5 5/11/5
f 4/10/6 2/6/6 6/12/6
